# xmcd
#
# Track frame offsets:
#	150
#	15209
#	31149
#	42401
#	54907
#	63924
#	81496
#	92988
#	105740
#	120552
#	135616
#	152033
#	162338
#	175211
#	193076
#	204846
#
# Disc length: 2923 seconds
#
# Revision: 0
# Processed by: cddbd v1.5.2PL0 Copyright (c) Steve Scherf et al.
# Submitted via: EZCDAudioConverter 2.0.3.1
#
DISCID=cb0b6910
DTITLE=Daniel O'Donnell - The Hank Williams Songbook
DYEAR=2015
DGENRE=Male
TTITLE0=Jambalaya ( On The Bayou)
TTITLE1=Half As Much
TTITLE2=Hey, Good Lookin'
TTITLE3=You Win Again
TTITLE4=Why Don't You Love Me (Like You Used To)
TTITLE5=Your Cheatin Heart
TTITLE6=Let's Turn Back The Years
TTITLE7=I Can't Help It (If I'm Still In Love With You)
TTITLE8=Kaw-Liga
TTITLE9=Take These Chains From My Heart
TTITLE10=Wedding Bells
TTITLE11=I Won't Be Home No More
TTITLE12=My Son Calls Another Man Daddy
TTITLE13=Cold, Cold Heart
TTITLE14=A Mansion On The Hill
TTITLE15=I Saw The Light
EXTD=
EXTT0=
EXTT1=
EXTT2=
EXTT3=
EXTT4=
EXTT5=
EXTT6=
EXTT7=
EXTT8=
EXTT9=
EXTT10=
EXTT11=
EXTT12=
EXTT13=
EXTT14=
EXTT15=
PLAYORDER=
